<?xml version="1.0" encoding="UTF-8"?>
<svg width="141px" height="81px" viewBox="0 0 141 81" version="1.1" xmlns="http://www.w3.org/2000/svg" xmlns:xlink="http://www.w3.org/1999/xlink">
    <!-- Generator: sketchtool 41.1 (35376) - http://www.bohemiancoding.com/sketch -->
    <title>182E2F51-997B-42FC-8A2A-F2BB3DE2482F</title>
    <desc>Created with sketchtool.</desc>
    <defs>
        <rect id="path-1" x="0.276595745" y="0.302631579" width="140" height="80" rx="4"></rect>
        <mask id="mask-2" maskContentUnits="userSpaceOnUse" maskUnits="objectBoundingBox" x="0" y="0" width="140" height="80" fill="white">
            <use xlink:href="#path-1"></use>
        </mask>
        <rect id="path-3" x="0" y="0" width="35" height="34" rx="4"></rect>
    </defs>
    <g id="ELVA" stroke="none" stroke-width="1" fill="none" fill-rule="evenodd">
        <g id="embed-styles" transform="translate(-207.000000, -31.000000)">
            <g id="style-split-highlight" transform="translate(207.000000, 31.000000)">
                <use id="Rectangle-6" stroke="#36AF6D" mask="url(#mask-2)" stroke-width="4" fill="#DFFFEE" xlink:href="#path-1"></use>
                <polygon id="Rectangle-9" fill="#36AF6D" points="69.2765957 1.30263158 71.2765957 1.30263158 71.2765957 79.3026316 69.2765957 79.3026316"></polygon>
                <g id="Group-14" transform="translate(18.276596, 23.302632)">
                    <mask id="mask-4" fill="white">
                        <use xlink:href="#path-3"></use>
                    </mask>
                    <use id="Rectangle-7" fill="#94B1AB" xlink:href="#path-3"></use>
                    <rect id="Rectangle-8" fill="#DFFFED" mask="url(#mask-4)" x="8" y="0" width="2" height="19"></rect>
                    <rect id="Rectangle-8" fill="#DFFFED" mask="url(#mask-4)" x="25" y="-1" width="2" height="37"></rect>
                    <rect id="Rectangle-8" fill="#DFFFED" mask="url(#mask-4)" transform="translate(11.775748, 19.940971) rotate(-270.000000) translate(-11.775748, -19.940971) " x="10.7757483" y="6.66145622" width="2" height="26.5590292"></rect>
                    <circle id="Oval-3" stroke="#DEFFED" stroke-width="2" fill="#506669" mask="url(#mask-4)" cx="9" cy="20" r="5"></circle>
                    <path d="M26,20 L36.5,28.5" id="Line" stroke="#DEFFED" stroke-width="2" stroke-linecap="square" mask="url(#mask-4)"></path>
                </g>
                <g id="Group-25" transform="translate(77.276596, 44.302632)" fill="#94B1AB">
                    <path d="M4.82992688,13.5378817 L14.1799245,8.86632873 C15.0474996,8.43274312 15.2573967,7.7386942 14.6619107,7.31524638 C14.0703116,6.89491787 12.9003291,6.89491787 12.0374185,7.31524638 L1.01004247,12.682818 C0.413477749,12.973375 0.0580085468,13.3784769 0.00659199923,13.7593677 C-0.0256295246,13.9960813 0.0595842576,14.2234508 0.277423565,14.4081924 L7.56552016,20.5914664 C8.20765006,21.1365677 9.54555025,21.1357879 10.5406184,20.5914664 C11.5255803,20.0518238 11.7875631,19.1877719 11.139214,18.6613865 L4.82992688,13.5378817 Z" id="Combined-Shape"></path>
                    <path d="M44.8299268,13.5378817 L54.1799245,8.86632873 C55.0474995,8.43274312 55.2573967,7.7386942 54.6619106,7.31524638 C54.0703115,6.89491787 52.9003291,6.89491787 52.0374184,7.31524638 L41.0100424,12.682818 C40.4134777,12.973375 40.0580085,13.3784769 40.0065919,13.7593677 C39.9743704,13.9960813 40.0595842,14.2234508 40.2774235,14.4081924 L47.5655201,20.5914664 C48.20765,21.1365677 49.5455502,21.1357879 50.5406183,20.5914664 C51.5255803,20.0518238 51.787563,19.1877719 51.139214,18.6613865 L44.8299268,13.5378817 Z" id="Combined-Shape" transform="translate(47.500000, 14.000000) scale(-1, 1) translate(-47.500000, -14.000000) "></path>
                    <path d="M27.9508599,1.72581535 L34.361999,4.76814055 C35.0137631,5.07728648 36.0210348,5.07728648 36.6045473,4.76814055 C37.1828098,4.4618974 37.1183084,3.96915072 36.4672944,3.66871313 L29.0182564,0.223446294 C29.0058391,0.217280395 28.9931479,0.211193834 28.980183,0.205190168 C28.6126846,0.0352863631 28.1092347,-0.0291032381 27.6412062,0.0120213645 C27.3554773,0.0369607197 27.0829466,0.101254468 26.8625874,0.20497246 C26.8532631,0.209367747 26.8440873,0.213807464 26.8350599,0.218290214 L19.5097289,3.66675375 C18.8707151,3.96719134 18.8249641,4.45993803 19.4152269,4.76690687 C20.0107397,5.0760528 21.0180114,5.0760528 21.6577752,4.76690687 L27.9508599,1.72581535 Z" id="Combined-Shape"></path>
                </g>
            </g>
        </g>
    </g>
</svg>