<svg xmlns="http://www.w3.org/2000/svg" aria-hidden="true" focusable="false" data-prefix="fas" data-icon="minus-square" role="img" width="448" height="447.16483278669534" style=""><rect id="backgroundrect" width="246.15384615384613" height="245.6949630696128" x="2.747252881526947" y="74.72527837753296" fill="none" stroke="none" class="" style=""/><g class="currentLayer" style=""><title>Layer 1</title><path fill="#0a1b23" d="M400.5494505763054,0.6813173294067385 H48.54945057630539 C22.04945057630539,0.6813173294067385 0.5494505763053894,22.18131732940674 0.5494505763053894,48.68131732940674 v352 c0,26.5 21.5,48 48,48 h352 c26.5,0 48,-21.5 48,-48 V48.68131732940674 c0,-26.5 -21.5,-48 -48,-48 zM92.54945057630539,264.68131732940674 c-6.6,0 -12,-5.4 -12,-12 v-56 c0,-6.6 5.4,-12 12,-12 h264 c6.6,0 12,5.4 12,12 v56 c0,6.6 -5.4,12 -12,12 H92.54945057630539 z" id="svg_1" class="" fill-opacity="1" stroke="#ffffff" stroke-opacity="1"/></g></svg>